{
  "accessors": [
    {
      "bufferView": 2,
      "componentType": 5126,
      "count": 10314,
      "max": [
        2700,
        2700,
        25022.6328125
      ],
      "min": [
        -2700,
        -2700,
        0
      ],
      "type": "VEC3"
    },
    {
      "bufferView": 2,
      "byteOffset": 123768,
      "componentType": 5126,
      "count": 10314,
      "max": [
        1,
        1,
        1
      ],
      "min": [
        -1,
        -1,
        -1
      ],
      "type": "VEC3"
    },
    {
      "bufferView": 1,
      "componentType": 5126,
      "count": 10314,
      "max": [
        0.99980849027633667,
        0.99958622455596924
      ],
      "min": [
        0.0010479426709935069,
        -0.00022534525487571955
      ],
      "type": "VEC2"
    },
    {
      "bufferView": 1,
      "byteOffset": 82512,
      "componentType": 5126,
      "count": 10314,
      "max": [
        0.99980849027633667,
        0.99958622455596924
      ],
      "min": [
        0.0010479426709935069,
        -0.00022534525487571955
      ],
      "type": "VEC2"
    },
    {
      "bufferView": 1,
      "byteOffset": 165024,
      "componentType": 5126,
      "count": 10314,
      "max": [
        0.99900001287460327,
        0.99376159906387329
      ],
      "min": [
        0.0010000000474974513,
        0.0010000000474974513
      ],
      "type": "VEC2"
    },
    {
      "bufferView": 1,
      "byteOffset": 247536,
      "componentType": 5126,
      "count": 10314,
      "max": [
        0.99980849027633667,
        0.99958622455596924
      ],
      "min": [
        0.0010479426709935069,
        -0.00022534525487571955
      ],
      "type": "VEC2"
    },
    {
      "bufferView": 1,
      "byteOffset": 330048,
      "componentType": 5126,
      "count": 10314,
      "max": [
        0.99980849027633667,
        0.99958622455596924
      ],
      "min": [
        0.0010479426709935069,
        -0.00022534525487571955
      ],
      "type": "VEC2"
    },
    {
      "bufferView": 0,
      "componentType": 5125,
      "count": 17847,
      "max": [
        10313
      ],
      "min": [
        0
      ],
      "type": "SCALAR"
    }
  ],
  "asset": {
    "extras": {
      "author": "aitortilla01 (https://sketchfab.com/aitortilla01)",
      "license": "CC-BY-4.0 (http://creativecommons.org/licenses/by/4.0/)",
      "source": "https://sketchfab.com/3d-models/park-tower-chicago-fa82b5beb9a9427698dafd2c3867ebf9",
      "title": "Park Tower, Chicago"
    },
    "generator": "Sketchfab-8.75.0",
    "version": "2.0"
  },
  "bufferViews": [
    {
      "buffer": 0,
      "byteLength": 71388,
      "byteOffset": 0,
      "name": "floatBufferViews",
      "target": 34963
    },
    {
      "buffer": 0,
      "byteLength": 412560,
      "byteOffset": 71388,
      "byteStride": 8,
      "name": "floatBufferViews",
      "target": 34962
    },
    {
      "buffer": 0,
      "byteLength": 247536,
      "byteOffset": 483948,
      "byteStride": 12,
      "name": "floatBufferViews",
      "target": 34962
    }
  ],
  "buffers": [
    {
      "byteLength": 731484,
      "uri": "scene.bin"
    }
  ],
  "images": [
    {
      "uri": "textures/Material_26_baseColor.png"
    }
  ],
  "materials": [
    {
      "alphaMode": "BLEND",
      "doubleSided": true,
      "name": "Material_26",
      "pbrMetallicRoughness": {
        "baseColorFactor": [
          1,
          1,
          1,
          1
        ],
        "baseColorTexture": {
          "index": 0,
          "texCoord": 0
        },
        "metallicFactor": 0,
        "roughnessFactor": 0.59999999999999998
      }
    }
  ],
  "meshes": [
    {
      "name": "hirise13_Material #26_0",
      "primitives": [
        {
          "attributes": {
            "NORMAL": 1,
            "POSITION": 0,
            "TEXCOORD_0": 2,
            "TEXCOORD_1": 3,
            "TEXCOORD_2": 4,
            "TEXCOORD_3": 5,
            "TEXCOORD_4": 6
          },
          "indices": 7,
          "material": 0,
          "mode": 4
        }
      ]
    }
  ],
  "nodes": [
    {
      "children": [
        1
      ],
      "name": "RootNode (gltf orientation matrix)",
      "rotation": [
        -0.70710678118654746,
        -0,
        -0,
        0.70710678118654757
      ]
    },
    {
      "children": [
        2
      ],
      "name": "RootNode (model correction matrix)"
    },
    {
      "children": [
        3
      ],
      "matrix": [
        1,
        0,
        0,
        0,
        0,
        0,
        1,
        0,
        0,
        -1,
        0,
        0,
        0,
        0,
        0,
        1
      ],
      "name": "hirise13.FBX"
    },
    {
      "children": [
        4
      ],
      "name": "RootNode"
    },
    {
      "children": [
        5
      ],
      "matrix": [
        1,
        0,
        0,
        0,
        0,
        2.2204460492503131e-16,
        -1,
        0,
        0,
        1,
        2.2204460492503131e-16,
        0,
        0,
        0,
        0,
        1
      ],
      "name": "hirise13"
    },
    {
      "mesh": 0,
      "name": "hirise13_Material #26_0"
    }
  ],
  "samplers": [
    {
      "magFilter": 9729,
      "minFilter": 9987,
      "wrapS": 10497,
      "wrapT": 10497
    }
  ],
  "scene": 0,
  "scenes": [
    {
      "name": "OSG_Scene",
      "nodes": [
        0
      ]
    }
  ],
  "textures": [
    {
      "sampler": 0,
      "source": 0
    }
  ]
}

